<?xml version="1.0" encoding="UTF-8" standalone="no"?>
<!-- Generator: Adobe Illustrator 22.0.1, SVG Export Plug-In . SVG Version: 6.00 Build 0)  -->

<svg
   version="1.1"
   id="Layer_1"
   x="0px"
   y="0px"
   viewBox="0 0 283.5 283.5"
   style="enable-background:new 0 0 283.5 283.5;"
   xml:space="preserve"
   sodipodi:docname="Kallpa1.svg"
   inkscape:version="1.4.2 (f4327f4, 2025-05-13)"
   inkscape:export-filename="Kallpa1.jpg"
   inkscape:export-xdpi="96"
   inkscape:export-ydpi="96"
   xmlns:inkscape="http://www.inkscape.org/namespaces/inkscape"
   xmlns:sodipodi="http://sodipodi.sourceforge.net/DTD/sodipodi-0.dtd"
   xmlns="http://www.w3.org/2000/svg"
   xmlns:svg="http://www.w3.org/2000/svg"><defs
   id="defs10" /><sodipodi:namedview
   id="namedview10"
   pagecolor="#ffffff"
   bordercolor="#000000"
   borderopacity="0.25"
   inkscape:showpageshadow="2"
   inkscape:pageopacity="0.0"
   inkscape:pagecheckerboard="0"
   inkscape:deskcolor="#d1d1d1"
   inkscape:zoom="2.1325443"
   inkscape:cx="153.80689"
   inkscape:cy="116.05855"
   inkscape:window-width="1920"
   inkscape:window-height="1057"
   inkscape:window-x="-8"
   inkscape:window-y="-8"
   inkscape:window-maximized="1"
   inkscape:current-layer="Layer_1"
   showguides="false" />
<style
   type="text/css"
   id="style1">
	.st0{fill:#8660A9;}
	.st1{font-family:'Montserrat-Black';}
	.st2{font-size:27.5706px;}
</style>
<g
   id="g10">
	<path
   class="st0"
   d="M120.8,130.8c-3.6,0-7.3,0-10.9,0c-0.6,0-1.1,0.1-1.6-0.1c-0.6-0.2-1.5-0.5-1.7-1c-0.2-0.6,0-1.6,0.5-2.1   c2.2-2.4,4.5-4.7,6.7-7.1c15-15.4,29.9-30.9,44.9-46.3c0.4-0.4,0.7-0.7,1.1-1.1c0.8-0.7,1.6-0.9,2.5-0.3c0.9,0.6,1,1.5,0.7,2.4   c-1.3,3.6-2.7,7.2-4,10.8c-3.1,8.4-6.1,16.8-9.2,25.2c-0.3,0.8-0.6,1.6-0.9,2.5c-0.7,2.1,0.2,3.6,2.4,3.8c0.5,0,1.1,0,1.7,0   c7.5,0,14.9,0,22.4,0c0.8,0,1.8-0.3,2.3,0.8c0.5,1.1-0.3,1.8-0.9,2.5c-5.5,5.7-11.1,11.3-16.6,16.9c-7.2,7.4-14.3,14.9-21.4,22.4   c-4.2,4.4-8.4,8.9-12.7,13.3c-1.1,1.1-2,1.4-3,0.7c-1.2-0.8-0.9-1.8-0.5-2.9c4.1-11.3,8.2-22.6,12.3-33.9c0.4-1,0.6-2,1-3   c0.8-2.1-0.3-3.7-2.6-3.7C129.1,130.7,125,130.7,120.8,130.8C120.8,130.7,120.8,130.8,120.8,130.8z"
   id="path1"
   style="fill:#a855f7;fill-opacity:1" />
	<path
   class="st0"
   d="M96.1,124.9c0-8.3,0-16.5,0-24.8c0-5.1,3.3-8.4,8.3-8.5c2.4,0,4.9-0.1,7,1.5c2,1.5,3.2,3.4,3.2,5.8   c0.1,4.5,0.1,9,0,13.6c0,0.6-0.5,1.3-0.9,1.7c-3.3,3.4-6.6,6.9-10,10.3c-3.5,3.4-2.1,7.7,0.6,9.4c1.1,0.6,2.4,1,3.6,1.2   c1.9,0.2,3.9,0.1,5.8,0.1c0.8,0,1.1,0.2,1.1,1.1c-0.1,4.7,0,9.4-0.1,14.1c0,4.3-3.3,7.9-7.6,8.1c-2,0.1-4.1,0-6-0.6   c-3.5-1.2-4.9-4.1-5-7.6C96,141.7,96.1,133.3,96.1,124.9C96.1,124.9,96.1,124.9,96.1,124.9z"
   id="path2"
   style="fill:#a855f7;fill-opacity:1" />
	<path
   class="st0"
   d="M169.7,113.2c0-5.3-0.2-10.4,0.1-15.5c0.2-2.6,2.1-4.6,4.5-5.4c2.8-1,5.7-1.1,8.5-0.1c3.3,1.1,5.1,3.8,5.1,7.2   c0,17,0,34,0,51c0,4.5-3.3,7.9-7.9,8c-3.3,0.1-6.6-0.1-8.7-3c-0.9-1.2-1.6-2.7-1.7-4.1c-0.2-5.3-0.1-10.6-0.1-15.9   c0-0.5,0.3-1,0.7-1.4c3.5-3.6,7-7.1,10.4-10.7c3.3-3.6,2-8.3-2.6-9.8c-0.5-0.2-1.2-0.2-1.8-0.2C174.2,113.2,172,113.2,169.7,113.2z   "
   id="path3"
   style="fill:#a855f7;fill-opacity:1" />
	<path
   class="st0"
   d="m 92.5,140.3 c -0.9,3.5 -2.8,5 -6.5,5.1 -0.8,0 -1.7,-0.1 -2.5,0 -3.7,0.5 -6.7,-2.5 -6.6,-6.5 v -22 c 0,-2.3 0,-4.7 0.3,-7 0.5,-3.1 2.9,-4.9 6.1,-4.9 h 2.9 c 2.9,0 5.7,1.7 6.3,5 h -0.1 v 0.4 0.6 c -0.1,0.5 -0.2,1.1 -0.2,1.6 v 23.3 c 0,0.5 0.2,1.1 0.2,1.6 0.1,1 0.1,1.9 0.1,2.8 z"
   id="path4"
   style="fill:#a855f7;fill-opacity:1"
   sodipodi:nodetypes="ccccscssccccsscc" />
	<path
   class="st0"
   d="M207.1,140.1c-0.3,3-3.3,5.5-6.4,5.2c-1.1-0.1-2.2,0-3.3,0c-3.2,0-5.9-2.5-5.9-5.7c-0.1-9.6-0.1-19.3,0-28.9   c0-3.2,2.7-5.7,5.8-5.8c1.2,0,2.4-0.1,3.6,0c3.1,0.2,5.3,1.5,6.1,5.1c0,0.1-0.1,0.1-0.1,0.2c-0.1,0.5-0.2,1.1-0.2,1.6   c0,9,0,17.9,0,26.9C206.8,139.2,206.9,139.7,207.1,140.1L207.1,140.1z"
   id="path5"
   style="fill:#a855f7;fill-opacity:1" />
	<path
   class="st0"
   d="M92.5,140.3c0-0.9,0-1.8-0.1-2.7c0-8.8,0-17.7,0-26.5c0-0.2,0-0.4,0-0.6c0-0.1,0-0.3,0-0.4c0,0,0.1,0,0.1,0   c0.1,0.5,0.3,1.1,0.3,1.6c0,9.1,0,18.1,0,27.2C92.7,139.3,92.6,139.8,92.5,140.3z"
   id="path6"
   style="fill:#a855f7;fill-opacity:1" />
	<path
   class="st0"
   d="m 207,110.2 c 0,-0.1 0.1,-0.1 0.1,-0.2 0.1,0.6 0.3,1.2 0.3,1.7 v 26.6 c 0,0.6 -0.2,1.2 -0.2,1.7 l -0.1,0.1 v -9.4 C 207,124 207,117.1 207,110.2 Z"
   id="path7"
   sodipodi:nodetypes="scsscccs"
   style="fill:#a855f7;fill-opacity:1" />
	<path
   class="st0"
   d="m 92.4,111 v 26.5 c -0.1,-0.5 -0.2,-1.1 -0.2,-1.6 v -23.3 c 0,-0.5 0.1,-1 0.2,-1.6 z"
   id="path8"
   style="fill:#a855f7;fill-opacity:1"
   sodipodi:nodetypes="ccssc" />
	<path
   class="st0"
   d="M92.4,110c0,0.1,0,0.3,0,0.4C92.4,110.3,92.4,110.1,92.4,110z"
   id="path9" />
	<path
   class="st0"
   d="m 207,110.2 c 0,6.9 0,13.7 0.1,20.6 v 9.4 c -0.1,-0.5 -0.2,-1 -0.2,-1.5 v -26.9 c -0.1,-0.5 0,-1 0.1,-1.6 z"
   id="path10"
   style="fill:#a855f7;fill-opacity:1"
   sodipodi:nodetypes="cccscc" />
	<text
   transform="matrix(1 0 0 1 95.0649 212.5449)"
   class="st0 st1 st2"
   id="text10"
   style="fill:#a855f7;fill-opacity:1">Kallpa</text>
<rect
   style="fill:#a855f7;fill-opacity:1;stroke-width:1.13386"
   id="rect11"
   width="0.45426959"
   height="10.199085"
   x="206.67801"
   y="110.27028" /><rect
   style="fill:#a855f7;fill-opacity:1;stroke-width:1.13386"
   id="rect12"
   width="0.58615428"
   height="11.16624"
   x="206.56078"
   y="120.32282" /><rect
   style="fill:#a855f7;fill-opacity:1;stroke-width:1.13386"
   id="rect13"
   width="0.77665448"
   height="8.3966608"
   x="206.37029"
   y="131.23994" /><rect
   style="fill:#a855f7;fill-opacity:1;stroke-width:1.13386"
   id="rect14"
   width="0.13188472"
   height="0.35169259"
   x="206.88316"
   y="110.05047" /></g>
<rect
   style="fill:#a855f7;fill-opacity:1;stroke-width:1.13386"
   id="rect15"
   width="0.49736923"
   height="29.759211"
   x="92.075333"
   y="110.02203"
   ry="0.20723684" /></svg>
