<?xml version="1.0" encoding="UTF-8" standalone="no"?>
<!-- Generator: Adobe Illustrator 22.0.1, SVG Export Plug-In . SVG Version: 6.00 Build 0)  -->

<svg
   version="1.1"
   id="Layer_1"
   x="0px"
   y="0px"
   viewBox="0 0 134.1 106.2"
   style="enable-background:new 0 0 134.1 106.2;"
   xml:space="preserve"
   sodipodi:docname="Kallpa3.svg"
   inkscape:version="1.4.2 (f4327f4, 2025-05-13)"
   inkscape:export-filename="Kallpa3.jpg"
   inkscape:export-xdpi="96"
   inkscape:export-ydpi="96"
   xmlns:inkscape="http://www.inkscape.org/namespaces/inkscape"
   xmlns:sodipodi="http://sodipodi.sourceforge.net/DTD/sodipodi-0.dtd"
   xmlns="http://www.w3.org/2000/svg"
   xmlns:svg="http://www.w3.org/2000/svg"><defs
   id="defs10" /><sodipodi:namedview
   id="namedview10"
   pagecolor="#ffffff"
   bordercolor="#000000"
   borderopacity="0.25"
   inkscape:showpageshadow="2"
   inkscape:pageopacity="0.0"
   inkscape:pagecheckerboard="0"
   inkscape:deskcolor="#d1d1d1"
   inkscape:zoom="5.692809"
   inkscape:cx="28.808274"
   inkscape:cy="53.137212"
   inkscape:window-width="1920"
   inkscape:window-height="1057"
   inkscape:window-x="-8"
   inkscape:window-y="-8"
   inkscape:window-maximized="1"
   inkscape:current-layer="Layer_1"
   showguides="false" />
<style
   type="text/css"
   id="style1">
	.st0{fill:#8660A9;}
	.st1{fill:#535353;}
</style>
<g
   id="g10">
	<path
   class="st0"
   d="M46.8,60.3c-3.6,0-7.3,0-10.9,0c-0.6,0-1.1,0.1-1.6-0.1c-0.6-0.2-1.5-0.5-1.7-1c-0.2-0.6,0-1.6,0.5-2.1   c2.2-2.4,4.5-4.7,6.7-7.1c15-15.4,29.9-30.9,44.9-46.3C85,3.4,85.3,3,85.7,2.7c0.8-0.7,1.6-0.9,2.5-0.3c0.9,0.6,1,1.5,0.7,2.4   c-1.3,3.6-2.7,7.2-4,10.8c-3.1,8.4-6.1,16.8-9.2,25.2c-0.3,0.8-0.6,1.6-0.9,2.5c-0.7,2.1,0.2,3.6,2.4,3.8c0.5,0,1.1,0,1.7,0   c7.5,0,14.9,0,22.4,0c0.8,0,1.8-0.3,2.3,0.8c0.5,1.1-0.3,1.8-0.9,2.5C97.1,56.1,91.5,61.7,86,67.4c-7.2,7.4-14.3,14.9-21.4,22.4   c-4.2,4.4-8.4,8.9-12.7,13.3c-1.1,1.1-2,1.4-3,0.7c-1.2-0.8-0.9-1.8-0.5-2.9c4.1-11.3,8.2-22.6,12.3-33.9c0.4-1,0.6-2,1-3   c0.8-2.1-0.3-3.7-2.6-3.7C55.1,60.2,51,60.2,46.8,60.3C46.8,60.2,46.8,60.3,46.8,60.3z"
   id="path1"
   style="fill:#a855f7;fill-opacity:1" />
	<path
   class="st0"
   d="M22.1,54.4c0-8.3,0-16.5,0-24.8c0-5.1,3.3-8.4,8.3-8.5c2.4,0,4.9-0.1,7,1.5c2,1.5,3.2,3.4,3.2,5.8   c0.1,4.5,0.1,9,0,13.6c0,0.6-0.5,1.3-0.9,1.7c-3.3,3.4-6.6,6.9-10,10.3c-3.5,3.4-2.1,7.7,0.6,9.4c1.1,0.6,2.4,1,3.6,1.2   c1.9,0.2,3.9,0.1,5.8,0.1c0.8,0,1.1,0.2,1.1,1.1c-0.1,4.7,0,9.4-0.1,14.1c0,4.3-3.3,7.9-7.6,8.1c-2,0.1-4.1,0-6-0.6   c-3.5-1.2-4.9-4.1-5-7.6C22,71.2,22.1,62.8,22.1,54.4C22.1,54.4,22.1,54.4,22.1,54.4z"
   id="path2"
   style="fill:#a855f7;fill-opacity:1" />
	<path
   class="st0"
   d="M95.7,42.7c0-5.3-0.2-10.4,0.1-15.5c0.2-2.6,2.1-4.6,4.5-5.4c2.8-1,5.7-1.1,8.5-0.1c3.3,1.1,5.1,3.8,5.1,7.2   c0,17,0,34,0,51c0,4.5-3.3,7.9-7.9,8c-3.3,0.1-6.6-0.1-8.7-3c-0.9-1.2-1.6-2.7-1.7-4.1c-0.2-5.3-0.1-10.6-0.1-15.9   c0-0.5,0.3-1,0.7-1.4c3.5-3.6,7-7.1,10.4-10.7c3.3-3.6,2-8.3-2.6-9.8c-0.5-0.2-1.2-0.2-1.8-0.2C100.2,42.7,98,42.7,95.7,42.7z"
   id="path3"
   style="fill:#a855f7;fill-opacity:1" />
	<path
   class="st0"
   d="M18.5,69.8c-0.9,3.5-2.8,5-6.5,5.1c-0.8,0-1.7-0.1-2.5,0c-3.7,0.5-6.7-2.5-6.6-6.5c0-7.3,0-14.6,0-22   c0-2.3,0-4.7,0.3-7c0.5-3.1,2.9-4.9,6.1-4.9c1,0,1.9,0,2.9,0c2.9,0,5.7,1.7,6.3,5c0,0-0.1,0-0.1,0c0,0.1,0,0.3,0,0.4   c0,0.2,0,0.4,0,0.6c-0.1,0.5-0.2,1.1-0.2,1.6c0,7.8,0,15.5,0,23.3c0,0.5,0.2,1.1,0.2,1.6C18.5,68,18.5,68.9,18.5,69.8z"
   id="path4"
   style="fill:#a855f7;fill-opacity:1" />
	<path
   class="st0"
   d="M133.1,69.6c-0.3,3-3.3,5.5-6.4,5.2c-1.1-0.1-2.2,0-3.3,0c-3.2,0-5.9-2.5-5.9-5.7c-0.1-9.6-0.1-19.3,0-28.9   c0-3.2,2.7-5.7,5.8-5.8c1.2,0,2.4-0.1,3.6,0c3.1,0.2,5.3,1.5,6.1,5.1c0,0.1-0.1,0.1-0.1,0.2c-0.1,0.5-0.2,1.1-0.2,1.6   c0,9,0,17.9,0,26.9C132.8,68.7,132.9,69.2,133.1,69.6L133.1,69.6z"
   id="path5"
   style="fill:#a855f7;fill-opacity:1" />
	<path
   class="st0"
   d="M18.5,69.8c0-0.9,0-1.8-0.1-2.7c0-8.8,0-17.7,0-26.5c0-0.2,0-0.4,0-0.6c0-0.1,0-0.3,0-0.4c0,0,0.1,0,0.1,0   c0.1,0.5,0.3,1.1,0.3,1.6c0,9.1,0,18.1,0,27.2C18.7,68.8,18.6,69.3,18.5,69.8z"
   id="path6"
   style="fill:#a855f7;fill-opacity:1" />
	<path
   id="path7"
   style="fill:#a855f7;fill-opacity:1"
   class="st0"
   d="m 133.09961,39.5 c 0,0.1 -0.0996,0.09922 -0.0996,0.199219 0,6.9 -3.7e-4,13.8 0.0996,20.5 v 9.40039 l 0.0312,-0.03125 c 10e-4,-0.0086 0.004,-0.01726 0.006,-0.02344 v -0.002 c -0.003,-0.0021 -0.006,-0.0035 -0.01,-0.0059 h -0.002 -0.002 -0.002 l -0.002,-0.002 h -0.002 v -0.002 -0.002 -0.002 -0.002 h 0.002 v -0.002 c 0.003,-0.0092 0.009,-0.02591 0.01,-0.02734 0.002,-0.0034 0.004,-0.0064 0.006,-0.0098 v -0.002 l 0.002,-0.002 h 0.002 v -0.002 -0.002 l 0.002,-0.002 v -0.002 -0.002 l 0.002,-0.002 0.002,-0.002 c -0.004,-0.01293 -0.003,-0.03176 0.008,-0.05078 0.01,-0.01681 0.0193,-0.03401 0.0293,-0.05078 v -0.002 l 0.002,-0.002 v -0.002 l 0.002,-0.002 c 0.006,-0.01213 0.0138,-0.02148 0.0215,-0.02734 0.0344,-0.464197 0.19336,-0.998091 0.19336,-1.533203 V 41.199219 c 0,-0.5 -0.20078,-1.099219 -0.30078,-1.699219 z" />
	<path
   class="st0"
   d="M18.4,40.5c0,8.8,0,17.7,0,26.5c-0.1-0.5-0.2-1.1-0.2-1.6c0-7.8,0-15.5,0-23.3C18.2,41.6,18.3,41.1,18.4,40.5z   "
   id="path8"
   style="fill:#a855f7;fill-opacity:1" />
	<path
   class="st1"
   d="M18.4,39.5c0,0.1,0,0.3,0,0.4C18.4,39.8,18.4,39.6,18.4,39.5z"
   id="path9" />
	<path
   class="st0"
   d="M133,39.7c0,6.9,0,13.7,0.1,20.6c0,3.1,0,6.3,0,9.4c-0.1-0.5-0.2-1-0.2-1.5c0-9,0-17.9,0-26.9   C132.8,40.8,132.9,40.3,133,39.7z"
   id="path10"
   style="fill:#a855f7;fill-opacity:1" />
</g>
<rect
   style="fill:#a855f7;fill-opacity:1;stroke-width:1.13386"
   id="rect10"
   width="0.63676822"
   height="1.6028994"
   x="17.895384"
   y="40.292061" /><rect
   style="fill:#a855f7;fill-opacity:1;stroke-width:1.13386"
   id="rect11"
   width="0.17566021"
   height="2.0859649"
   x="18.356491"
   y="67.321777" /><rect
   style="fill:#a855f7;fill-opacity:1;stroke-width:1.13386"
   id="rect12"
   width="0.43915051"
   height="29.466999"
   x="132.66737"
   y="39.743122" /><rect
   style="fill:#a855f7;fill-opacity:1;stroke-width:1.13386"
   id="rect15"
   width="0.15526316"
   height="0.42697367"
   x="132.92854"
   y="69.107628" /><rect
   style="fill:#a855f7;fill-opacity:1;stroke-width:1.13386"
   id="rect16"
   width="0.61481071"
   height="24.241108"
   x="17.785595"
   y="41.499725" /></svg>
